<?xml version="1.0" standalone="no"?>
<!DOCTYPE svg PUBLIC "-//W3C//DTD SVG 20010904//EN"
 "http://www.w3.org/TR/2001/REC-SVG-20010904/DTD/svg10.dtd">
<svg version="1.0" xmlns="http://www.w3.org/2000/svg"
 width="700.000000pt" height="700.000000pt" viewBox="0 0 700.000000 700.000000"
 preserveAspectRatio="xMidYMid meet">
<metadata>
Created by potrace 1.14, written by Peter Selinger 2001-2017
</metadata>
<g transform="translate(0.000000,700.000000) scale(0.100000,-0.100000)"
fill="#000000" stroke="none">
<path d="M1146 6985 c-122 -31 -249 -123 -322 -232 -80 -121 -154 -308 -179
-453 -3 -19 -10 -53 -15 -75 -5 -22 -11 -60 -15 -85 -3 -25 -8 -61 -10 -80
-17 -119 -33 -401 -35 -591 l0 -35 -145 -34 c-212 -49 -226 -65 -225 -274 0
-186 9 -305 36 -496 32 -224 109 -547 178 -747 20 -58 22 -74 11 -83 -7 -6
-63 -42 -125 -81 -63 -39 -121 -81 -131 -92 -34 -42 -34 -95 1 -198 113 -331
357 -770 642 -1156 21 -29 38 -55 38 -59 0 -8 -40 -45 -103 -97 -79 -65 -90
-128 -41 -238 143 -325 403 -648 730 -908 164 -130 452 -289 539 -296 46 -4
101 23 139 68 57 70 92 107 101 107 4 0 31 -17 59 -38 298 -223 624 -416 926
-550 195 -86 315 -125 363 -119 53 7 80 36 167 175 41 64 74 118 75 120 1 1
28 -7 61 -18 67 -24 233 -73 324 -96 109 -28 349 -76 450 -90 19 -2 49 -6 65
-9 17 -2 62 -7 100 -10 39 -3 90 -8 115 -11 25 -2 111 -5 192 -5 207 -1 232
13 269 149 11 37 26 99 35 137 9 39 19 73 23 77 3 4 63 9 133 12 69 3 142 8
162 11 157 22 179 26 198 31 10 3 30 7 45 10 155 27 416 129 543 211 116 75
136 90 212 162 178 167 269 358 263 554 -1 63 -8 95 -27 137 -80 176 -276 346
-807 701 -217 145 -230 156 -231 185 0 62 -31 101 -244 313 -128 126 -213 218
-209 225 78 125 89 166 59 224 -8 15 -145 158 -305 317 -160 160 -291 295
-291 300 0 6 19 30 42 55 69 75 84 138 49 195 -24 40 -787 802 -826 827 -57
34 -111 21 -191 -48 -29 -24 -56 -44 -61 -44 -4 0 -141 133 -303 296 -162 163
-306 301 -320 306 -52 22 -107 7 -201 -55 l-26 -17 -219 220 c-146 146 -230
224 -252 231 -35 11 -78 8 -154 -12 -26 -7 -49 -11 -51 -8 -12 17 -323 405
-327 409 -3 3 -27 32 -55 65 -215 260 -404 452 -530 537 -116 79 -245 104
-369 73z m174 -285 c126 -64 326 -273 665 -695 71 -88 132 -165 137 -171 7
-10 -102 -42 -267 -79 -11 -2 -110 -27 -220 -55 -110 -27 -213 -52 -229 -55
-16 -3 -32 -8 -36 -10 -3 -2 -17 -6 -31 -8 -13 -3 -53 -13 -89 -22 -36 -9 -72
-18 -80 -20 -8 -2 -44 -11 -80 -20 -36 -9 -73 -19 -82 -21 -10 -2 -26 -6 -35
-8 -78 -19 -109 -26 -115 -26 -9 0 5 368 17 440 2 14 7 50 10 80 52 477 241
769 435 670z m1530 -1381 c0 -6 -1999 -1260 -2122 -1331 l-47 -28 -25 78 c-55
168 -123 450 -141 587 -3 17 -9 62 -15 100 -5 39 -13 145 -16 236 l-7 167 34
7 c50 11 1613 397 1834 453 l190 49 158 -156 c86 -86 157 -159 157 -162z m653
-329 c235 -235 240 -241 221 -259 -10 -10 -80 -71 -154 -136 -74 -65 -164
-144 -200 -176 -36 -31 -144 -126 -240 -210 -96 -84 -180 -158 -186 -164 -6
-5 -24 -21 -40 -35 -46 -40 -438 -384 -450 -395 -6 -5 -40 -35 -75 -66 -210
-184 -433 -379 -489 -430 -36 -31 -75 -66 -86 -76 -12 -10 -45 -39 -75 -65
-30 -26 -63 -55 -75 -65 -33 -28 -155 -136 -180 -158 -150 -136 -399 -350
-405 -350 -7 0 -96 116 -146 192 -7 10 -30 43 -51 73 -95 138 -206 327 -282
479 -49 98 -145 331 -138 335 20 13 116 73 130 81 23 13 2521 1573 2603 1626
33 21 64 39 68 39 5 0 117 -108 250 -240z m1111 -750 l104 -105 -31 -36 c-18
-20 -57 -64 -87 -99 -30 -35 -60 -68 -65 -74 -6 -6 -123 -139 -259 -296 -137
-157 -254 -289 -260 -295 -6 -5 -36 -39 -66 -75 -30 -36 -57 -67 -61 -70 -4
-4 -206 -234 -319 -364 -14 -16 -34 -39 -45 -50 -11 -12 -45 -50 -75 -86 -30
-35 -62 -72 -70 -80 -23 -25 -90 -100 -150 -170 -30 -35 -60 -68 -65 -74 -6
-6 -91 -103 -190 -216 -99 -113 -182 -207 -185 -210 -3 -3 -48 -54 -100 -115
-52 -60 -102 -117 -110 -125 -8 -9 -42 -47 -75 -85 -33 -38 -69 -79 -80 -91
-11 -12 -31 -35 -44 -50 -34 -40 -143 -164 -161 -184 -8 -9 -42 -47 -75 -85
-33 -38 -65 -73 -70 -79 -6 -6 -36 -41 -68 -78 l-59 -67 -76 38 c-43 22 -94
51 -115 65 -21 14 -42 26 -47 26 -4 0 -10 3 -12 8 -1 4 -39 34 -83 67 -72 54
-313 285 -376 360 -100 120 -212 293 -240 369 -15 42 -27 27 121 156 35 30 68
60 74 65 11 10 237 209 291 256 17 14 55 48 86 75 100 89 192 170 324 285 178
156 196 172 215 189 9 8 65 58 125 110 61 52 115 100 120 106 6 6 42 37 80 70
39 32 77 66 85 74 8 9 89 80 180 159 91 79 179 155 195 170 17 15 86 76 155
136 69 60 127 112 130 115 3 3 37 32 75 65 39 33 75 65 80 71 6 5 46 41 90 80
44 38 82 71 85 74 3 3 59 52 125 110 66 57 122 107 125 110 3 3 72 64 154 135
82 72 165 144 185 162 l36 32 187 -187 c103 -103 235 -234 292 -292z m379
-741 l241 -241 -18 -31 c-10 -18 -259 -418 -554 -889 -296 -472 -541 -866
-547 -875 -13 -23 -268 -432 -310 -498 -18 -27 -97 -153 -175 -280 -79 -126
-144 -231 -145 -232 -9 -15 -385 155 -535 242 -161 94 -550 359 -550 374 0 3
20 27 43 52 23 25 69 77 102 115 33 37 83 94 110 124 28 31 75 84 105 119 30
36 60 69 65 75 6 6 107 121 225 256 118 135 219 250 225 256 10 11 30 33 205
234 46 52 111 127 145 165 34 39 115 131 180 205 65 74 130 149 144 165 15 17
60 68 101 115 41 47 79 90 85 96 5 6 33 37 62 70 28 32 62 71 75 85 13 15 124
142 247 283 124 141 227 256 229 256 3 0 113 -109 245 -241z m484 -801 c84
-84 153 -160 153 -168 0 -9 -43 -189 -96 -400 -52 -212 -97 -392 -99 -400 -5
-22 -272 -1103 -292 -1183 l-18 -67 -160 4 c-167 5 -246 13 -430 47 -241 44
-581 141 -569 162 4 7 269 431 588 942 320 512 586 938 591 947 42 73 168 268
173 268 4 0 75 -69 159 -152z m581 -574 c459 -311 647 -477 659 -582 10 -87
-62 -229 -169 -333 -150 -145 -418 -273 -658 -314 -19 -3 -42 -8 -50 -10 -53
-16 -330 -38 -330 -27 0 4 12 54 26 112 14 58 27 112 29 120 2 8 29 116 60
240 31 124 58 232 60 240 2 8 31 128 65 265 34 138 63 257 65 265 20 90 39
150 47 150 6 0 94 -57 196 -126z"/>
</g>
</svg>
